<svg xmlns="http://www.w3.org/2000/svg" viewBox="0 0 336 384" class="cs-svg" role="img" focusable="false">
<title>Section drawing, SHS 100 x 4: h 100 mm, b 100 mm</title>
<style>.cs-svg{color:#1d1b16;--cs-acc:#a2754f;--cs-ground:#f4f2ea;font-family:'JetBrains Mono','IBM Plex Mono',ui-monospace,monospace}
.cs-svg .d{fill:none;stroke:currentColor;stroke-width:1.3;stroke-linejoin:round}
.cs-svg .df{fill:none;stroke:currentColor;stroke-width:.8;opacity:.45}
.cs-svg .dm{fill:none;stroke:var(--cs-acc);stroke-width:1}
.cs-svg .dc{fill:none;stroke:currentColor;stroke-width:.8;stroke-dasharray:9 3 2 3;opacity:.5}
.cs-svg .lbl{font-size:17px;fill:currentColor;letter-spacing:.06em}
.cs-svg .lbl-s{font-size:13px;fill:currentColor;opacity:.62;letter-spacing:.04em}
.cs-svg .lbl-a{font-size:17px;fill:var(--cs-acc);letter-spacing:.06em}</style>
<defs><pattern id="hx-tube" width="5" height="5" patternUnits="userSpaceOnUse" patternTransform="rotate(45)"><path d="M0 0V5" stroke="currentColor" stroke-width=".7" opacity=".4"/></pattern></defs>
<text class="lbl" x="14" y="28">SHS 100 x 4</text>
<text class="lbl-s" x="14" y="47">11.7 kg/m</text>
<path class="dc" d="M170 139V253 M113 196H227"/>
<path class="d cut draw" pathLength="1" fill-rule="evenodd" style="fill:url(#hx-tube)" d="M132.2 151H207.8a7.2 7.2 0 0 1 7.2 7.2V233.8a7.2 7.2 0 0 1 -7.2 7.2H132.2a7.2 7.2 0 0 1 -7.2 -7.2V158.2a7.2 7.2 0 0 1 7.2 -7.2ZM132.2 154.6H207.8a3.6 3.6 0 0 1 3.6 3.6V233.8a3.6 3.6 0 0 1 -3.6 3.6H132.2a3.6 3.6 0 0 1 -3.6 -3.6V158.2a3.6 3.6 0 0 1 3.6 -3.6Z"/>
<path class="dm draw" pathLength="1" d="M121 151H97 M121 241H97 M103 151V241M99.4 157L106.6 145M99.4 247L106.6 235M125 245V271 M215 245V271 M125 265H215M121.4 271L128.6 259M211.4 271L218.6 259"/>
<text class="lbl" x="85" y="196" text-anchor="middle" transform="rotate(-90 85 196)">h</text>
<text class="lbl-s minor" x="67" y="196" text-anchor="middle" transform="rotate(-90 67 196)">100</text>
<text class="lbl" x="170" y="289" text-anchor="middle">b</text>
<text class="lbl-s minor" x="170" y="307" text-anchor="middle">100</text>
<path class="dm" d="M150.2 152.8L134.2 129"/>
<text class="lbl" x="130.2" y="131" text-anchor="end">t</text><text class="lbl-s minor" x="130.2" y="115" text-anchor="end">4</text>
</svg>
