<svg xmlns="http://www.w3.org/2000/svg" viewBox="0 0 640 480" class="cs-svg" role="img" focusable="false">
<title>Herringbone parquet, plan view</title>
<style>.cs-svg{color:#1d1b16;--cs-acc:#a2754f;--cs-ground:#f4f2ea;font-family:'JetBrains Mono','IBM Plex Mono',ui-monospace,monospace}
.cs-svg .d{fill:none;stroke:currentColor;stroke-width:1.3;stroke-linejoin:round}
.cs-svg .df{fill:none;stroke:currentColor;stroke-width:.8;opacity:.45}
.cs-svg .dm{fill:none;stroke:var(--cs-acc);stroke-width:1}
.cs-svg .dc{fill:none;stroke:currentColor;stroke-width:.8;stroke-dasharray:9 3 2 3;opacity:.5}
.cs-svg .lbl{font-size:17px;fill:currentColor;letter-spacing:.06em}
.cs-svg .lbl-s{font-size:13px;fill:currentColor;opacity:.62;letter-spacing:.04em}
.cs-svg .lbl-a{font-size:17px;fill:var(--cs-acc);letter-spacing:.06em}
.hbl{stroke-width:1}</style>
<defs><radialGradient id="hb-g" cx=".5" cy=".5" r=".55"><stop offset=".45" stop-color="#fff"/><stop offset="1" stop-color="#000"/></radialGradient><mask id="hb-m"><rect width="640" height="480" fill="url(#hb-g)"/></mask></defs>
<g mask="url(#hb-m)"><path class="d draw hbl" pathLength="1" d="M16.65 -26.58L25.84 -17.39L-10.93 19.38L-20.12 10.19ZM16.65 -8.19L25.84 1L-10.93 37.77L-20.12 28.58ZM16.65 10.19L25.84 19.38L-10.93 56.15L-20.12 46.96ZM16.65 28.58L25.84 37.77L-10.93 74.54L-20.12 65.34ZM16.65 46.96L25.84 56.15L-10.93 92.92L-20.12 83.73ZM16.65 65.34L25.84 74.54L-10.93 111.31L-20.12 102.11ZM16.65 83.73L25.84 92.92L-10.93 129.69L-20.12 120.5ZM16.65 102.11L25.84 111.31L-10.93 148.08L-20.12 138.88ZM16.65 120.5L25.84 129.69L-10.93 166.46L-20.12 157.27ZM16.65 138.88L25.84 148.08L-10.93 184.85L-20.12 175.65ZM16.65 157.27L25.84 166.46L-10.93 203.23L-20.12 194.04ZM16.65 175.65L25.84 184.85L-10.93 221.62L-20.12 212.42ZM16.65 194.04L25.84 203.23L-10.93 240L-20.12 230.81ZM16.65 212.42L25.84 221.62L-10.93 258.38L-20.12 249.19ZM16.65 230.81L25.84 240L-10.93 276.77L-20.12 267.58ZM16.65 249.19L25.84 258.38L-10.93 295.15L-20.12 285.96ZM16.65 267.58L25.84 276.77L-10.93 313.54L-20.12 304.35ZM16.65 285.96L25.84 295.15L-10.93 331.92L-20.12 322.73ZM16.65 304.35L25.84 313.54L-10.93 350.31L-20.12 341.12ZM16.65 322.73L25.84 331.92L-10.93 368.69L-20.12 359.5ZM16.65 341.12L25.84 350.31L-10.93 387.08L-20.12 377.89ZM16.65 359.5L25.84 368.69L-10.93 405.46L-20.12 396.27ZM16.65 377.89L25.84 387.08L-10.93 423.85L-20.12 414.66ZM16.65 396.27L25.84 405.46L-10.93 442.23L-20.12 433.04ZM16.65 414.66L25.84 423.85L-10.93 460.62L-20.12 451.42ZM16.65 433.04L25.84 442.23L-10.93 479L-20.12 469.81ZM16.65 451.42L25.84 460.62L-10.93 497.39L-20.12 488.19ZM16.65 469.81L25.84 479L-10.93 515.77L-20.12 506.58ZM25.84 -35.77L62.61 1L53.42 10.19L16.65 -26.58ZM25.84 -17.39L62.61 19.38L53.42 28.58L16.65 -8.19ZM90.19 -26.58L99.38 -17.39L62.61 19.38L53.42 10.19ZM25.84 1L62.61 37.77L53.42 46.96L16.65 10.19ZM90.19 -8.19L99.38 1L62.61 37.77L53.42 28.58ZM25.84 19.38L62.61 56.15L53.42 65.34L16.65 28.58ZM90.19 10.19L99.38 19.38L62.61 56.15L53.42 46.96ZM25.84 37.77L62.61 74.54L53.42 83.73L16.65 46.96ZM90.19 28.58L99.38 37.77L62.61 74.54L53.42 65.34ZM25.84 56.15L62.61 92.92L53.42 102.11L16.65 65.34ZM90.19 46.96L99.38 56.15L62.61 92.92L53.42 83.73ZM25.84 74.54L62.61 111.31L53.42 120.5L16.65 83.73ZM90.19 65.34L99.38 74.54L62.61 111.31L53.42 102.11ZM25.84 92.92L62.61 129.69L53.42 138.88L16.65 102.11ZM90.19 83.73L99.38 92.92L62.61 129.69L53.42 120.5ZM25.84 111.31L62.61 148.08L53.42 157.27L16.65 120.5ZM90.19 102.11L99.38 111.31L62.61 148.08L53.42 138.88ZM25.84 129.69L62.61 166.46L53.42 175.65L16.65 138.88ZM90.19 120.5L99.38 129.69L62.61 166.46L53.42 157.27ZM25.84 148.08L62.61 184.85L53.42 194.04L16.65 157.27ZM90.19 138.88L99.38 148.08L62.61 184.85L53.42 175.65ZM25.84 166.46L62.61 203.23L53.42 212.42L16.65 175.65ZM90.19 157.27L99.38 166.46L62.61 203.23L53.42 194.04ZM25.84 184.85L62.61 221.62L53.42 230.81L16.65 194.04ZM90.19 175.65L99.38 184.85L62.61 221.62L53.42 212.42ZM25.84 203.23L62.61 240L53.42 249.19L16.65 212.42ZM90.19 194.04L99.38 203.23L62.61 240L53.42 230.81ZM25.84 221.62L62.61 258.38L53.42 267.58L16.65 230.81ZM90.19 212.42L99.38 221.62L62.61 258.38L53.42 249.19ZM25.84 240L62.61 276.77L53.42 285.96L16.65 249.19ZM90.19 230.81L99.38 240L62.61 276.77L53.42 267.58ZM25.84 258.38L62.61 295.15L53.42 304.35L16.65 267.58ZM90.19 249.19L99.38 258.38L62.61 295.15L53.42 285.96ZM25.84 276.77L62.61 313.54L53.42 322.73L16.65 285.96ZM90.19 267.58L99.38 276.77L62.61 313.54L53.42 304.35ZM25.84 295.15L62.61 331.92L53.42 341.12L16.65 304.35ZM90.19 285.96L99.38 295.15L62.61 331.92L53.42 322.73ZM25.84 313.54L62.61 350.31L53.42 359.5L16.65 322.73ZM90.19 304.35L99.38 313.54L62.61 350.31L53.42 341.12ZM25.84 331.92L62.61 368.69L53.42 377.89L16.65 341.12ZM90.19 322.73L99.38 331.92L62.61 368.69L53.42 359.5ZM25.84 350.31L62.61 387.08L53.42 396.27L16.65 359.5ZM90.19 341.12L99.38 350.31L62.61 387.08L53.42 377.89ZM25.84 368.69L62.61 405.46L53.42 414.66L16.65 377.89ZM90.19 359.5L99.38 368.69L62.61 405.46L53.42 396.27ZM25.84 387.08L62.61 423.85L53.42 433.04L16.65 396.27ZM90.19 377.89L99.38 387.08L62.61 423.85L53.42 414.66ZM25.84 405.46L62.61 442.23L53.42 451.42L16.65 414.66ZM90.19 396.27L99.38 405.46L62.61 442.23L53.42 433.04ZM25.84 423.85L62.61 460.62L53.42 469.81L16.65 433.04ZM90.19 414.66L99.38 423.85L62.61 460.62L53.42 451.42ZM25.84 442.23L62.61 479L53.42 488.19L16.65 451.42ZM90.19 433.04L99.38 442.23L62.61 479L53.42 469.81ZM25.84 460.62L62.61 497.39L53.42 506.58L16.65 469.81ZM90.19 451.42L99.38 460.62L62.61 497.39L53.42 488.19ZM90.19 469.81L99.38 479L62.61 515.77L53.42 506.58ZM99.38 -35.77L136.15 1L126.96 10.19L90.19 -26.58ZM99.38 -17.39L136.15 19.38L126.96 28.58L90.19 -8.19ZM163.73 -26.58L172.92 -17.39L136.15 19.38L126.96 10.19ZM99.38 1L136.15 37.77L126.96 46.96L90.19 10.19ZM163.73 -8.19L172.92 1L136.15 37.77L126.96 28.58ZM99.38 19.38L136.15 56.15L126.96 65.34L90.19 28.58ZM163.73 10.19L172.92 19.38L136.15 56.15L126.96 46.96ZM99.38 37.77L136.15 74.54L126.96 83.73L90.19 46.96ZM163.73 28.58L172.92 37.77L136.15 74.54L126.96 65.34ZM99.38 56.15L136.15 92.92L126.96 102.11L90.19 65.34ZM163.73 46.96L172.92 56.15L136.15 92.92L126.96 83.73ZM99.38 74.54L136.15 111.31L126.96 120.5L90.19 83.73ZM163.73 65.34L172.92 74.54L136.15 111.31L126.96 102.11ZM99.38 92.92L136.15 129.69L126.96 138.88L90.19 102.11ZM163.73 83.73L172.92 92.92L136.15 129.69L126.96 120.5ZM99.38 111.31L136.15 148.08L126.96 157.27L90.19 120.5ZM163.73 102.11L172.92 111.31L136.15 148.08L126.96 138.88ZM99.38 129.69L136.15 166.46L126.96 175.65L90.19 138.88ZM163.73 120.5L172.92 129.69L136.15 166.46L126.96 157.27ZM99.38 148.08L136.15 184.85L126.96 194.04L90.19 157.27ZM163.73 138.88L172.92 148.08L136.15 184.85L126.96 175.65ZM99.38 166.46L136.15 203.23L126.96 212.42L90.19 175.65ZM163.73 157.27L172.92 166.46L136.15 203.23L126.96 194.04ZM99.38 184.85L136.15 221.62L126.96 230.81L90.19 194.04ZM163.73 175.65L172.92 184.85L136.15 221.62L126.96 212.42ZM99.38 203.23L136.15 240L126.96 249.19L90.19 212.42ZM163.73 194.04L172.92 203.23L136.15 240L126.96 230.81ZM99.38 221.62L136.15 258.38L126.96 267.58L90.19 230.81ZM163.73 212.42L172.92 221.62L136.15 258.38L126.96 249.19ZM99.38 240L136.15 276.77L126.96 285.96L90.19 249.19ZM163.73 230.81L172.92 240L136.15 276.77L126.96 267.58ZM99.38 258.38L136.15 295.15L126.96 304.35L90.19 267.58ZM163.73 249.19L172.92 258.38L136.15 295.15L126.96 285.96ZM99.38 276.77L136.15 313.54L126.96 322.73L90.19 285.96ZM163.73 267.58L172.92 276.77L136.15 313.54L126.96 304.35ZM99.38 295.15L136.15 331.92L126.96 341.12L90.19 304.35ZM163.73 285.96L172.92 295.15L136.15 331.92L126.96 322.73ZM99.38 313.54L136.15 350.31L126.96 359.5L90.19 322.73ZM163.73 304.35L172.92 313.54L136.15 350.31L126.96 341.12ZM99.38 331.92L136.15 368.69L126.96 377.89L90.19 341.12ZM163.73 322.73L172.92 331.92L136.15 368.69L126.96 359.5ZM99.38 350.31L136.15 387.08L126.96 396.27L90.19 359.5ZM163.73 341.12L172.92 350.31L136.15 387.08L126.96 377.89ZM99.38 368.69L136.15 405.46L126.96 414.66L90.19 377.89ZM163.73 359.5L172.92 368.69L136.15 405.46L126.96 396.27ZM99.38 387.08L136.15 423.85L126.96 433.04L90.19 396.27ZM163.73 377.89L172.92 387.08L136.15 423.85L126.96 414.66ZM99.38 405.46L136.15 442.23L126.96 451.42L90.19 414.66ZM163.73 396.27L172.92 405.46L136.15 442.23L126.96 433.04ZM99.38 423.85L136.15 460.62L126.96 469.81L90.19 433.04ZM163.73 414.66L172.92 423.85L136.15 460.62L126.96 451.42ZM99.38 442.23L136.15 479L126.96 488.19L90.19 451.42ZM163.73 433.04L172.92 442.23L136.15 479L126.96 469.81ZM99.38 460.62L136.15 497.39L126.96 506.58L90.19 469.81ZM163.73 451.42L172.92 460.62L136.15 497.39L126.96 488.19ZM163.73 469.81L172.92 479L136.15 515.77L126.96 506.58ZM172.92 -35.77L209.69 1L200.5 10.19L163.73 -26.58ZM172.92 -17.39L209.69 19.38L200.5 28.58L163.73 -8.19ZM237.27 -26.58L246.46 -17.39L209.69 19.38L200.5 10.19ZM172.92 1L209.69 37.77L200.5 46.96L163.73 10.19ZM237.27 -8.19L246.46 1L209.69 37.77L200.5 28.58ZM172.92 19.38L209.69 56.15L200.5 65.34L163.73 28.58ZM237.27 10.19L246.46 19.38L209.69 56.15L200.5 46.96ZM172.92 37.77L209.69 74.54L200.5 83.73L163.73 46.96ZM237.27 28.58L246.46 37.77L209.69 74.54L200.5 65.34ZM172.92 56.15L209.69 92.92L200.5 102.11L163.73 65.34ZM237.27 46.96L246.46 56.15L209.69 92.92L200.5 83.73ZM172.92 74.54L209.69 111.31L200.5 120.5L163.73 83.73ZM237.27 65.34L246.46 74.54L209.69 111.31L200.5 102.11ZM172.92 92.92L209.69 129.69L200.5 138.88L163.73 102.11ZM237.27 83.73L246.46 92.92L209.69 129.69L200.5 120.5ZM172.92 111.31L209.69 148.08L200.5 157.27L163.73 120.5ZM237.27 102.11L246.46 111.31L209.69 148.08L200.5 138.88ZM172.92 129.69L209.69 166.46L200.5 175.65L163.73 138.88ZM237.27 120.5L246.46 129.69L209.69 166.46L200.5 157.27ZM172.92 148.08L209.69 184.85L200.5 194.04L163.73 157.27ZM237.27 138.88L246.46 148.08L209.69 184.85L200.5 175.65ZM172.92 166.46L209.69 203.23L200.5 212.42L163.73 175.65ZM237.27 157.27L246.46 166.46L209.69 203.23L200.5 194.04ZM172.92 184.85L209.69 221.62L200.5 230.81L163.73 194.04ZM237.27 175.65L246.46 184.85L209.69 221.62L200.5 212.42ZM172.92 203.23L209.69 240L200.5 249.19L163.73 212.42ZM237.27 194.04L246.46 203.23L209.69 240L200.5 230.81ZM172.92 221.62L209.69 258.38L200.5 267.58L163.73 230.81ZM237.27 212.42L246.46 221.62L209.69 258.38L200.5 249.19ZM172.92 240L209.69 276.77L200.5 285.96L163.73 249.19ZM237.27 230.81L246.46 240L209.69 276.77L200.5 267.58ZM172.92 258.38L209.69 295.15L200.5 304.35L163.73 267.58ZM237.27 249.19L246.46 258.38L209.69 295.15L200.5 285.96ZM172.92 276.77L209.69 313.54L200.5 322.73L163.73 285.96ZM237.27 267.58L246.46 276.77L209.69 313.54L200.5 304.35ZM172.92 295.15L209.69 331.92L200.5 341.12L163.73 304.35ZM237.27 285.96L246.46 295.15L209.69 331.92L200.5 322.73ZM172.92 313.54L209.69 350.31L200.5 359.5L163.73 322.73ZM237.27 304.35L246.46 313.54L209.69 350.31L200.5 341.12ZM172.92 331.92L209.69 368.69L200.5 377.89L163.73 341.12ZM237.27 322.73L246.46 331.92L209.69 368.69L200.5 359.5ZM172.92 350.31L209.69 387.08L200.5 396.27L163.73 359.5ZM237.27 341.12L246.46 350.31L209.69 387.08L200.5 377.89ZM172.92 368.69L209.69 405.46L200.5 414.66L163.73 377.89ZM237.27 359.5L246.46 368.69L209.69 405.46L200.5 396.27ZM172.92 387.08L209.69 423.85L200.5 433.04L163.73 396.27ZM237.27 377.89L246.46 387.08L209.69 423.85L200.5 414.66ZM172.92 405.46L209.69 442.23L200.5 451.42L163.73 414.66ZM237.27 396.27L246.46 405.46L209.69 442.23L200.5 433.04ZM172.92 423.85L209.69 460.62L200.5 469.81L163.73 433.04ZM237.27 414.66L246.46 423.85L209.69 460.62L200.5 451.42ZM172.92 442.23L209.69 479L200.5 488.19L163.73 451.42ZM237.27 433.04L246.46 442.23L209.69 479L200.5 469.81ZM172.92 460.62L209.69 497.39L200.5 506.58L163.73 469.81ZM237.27 451.42L246.46 460.62L209.69 497.39L200.5 488.19ZM237.27 469.81L246.46 479L209.69 515.77L200.5 506.58ZM246.46 -35.77L283.23 1L274.04 10.19L237.27 -26.58ZM246.46 -17.39L283.23 19.38L274.04 28.58L237.27 -8.19ZM310.81 -26.58L320 -17.39L283.23 19.38L274.04 10.19ZM246.46 1L283.23 37.77L274.04 46.96L237.27 10.19ZM310.81 -8.19L320 1L283.23 37.77L274.04 28.58ZM246.46 19.38L283.23 56.15L274.04 65.34L237.27 28.58ZM310.81 10.19L320 19.38L283.23 56.15L274.04 46.96ZM246.46 37.77L283.23 74.54L274.04 83.73L237.27 46.96ZM310.81 28.58L320 37.77L283.23 74.54L274.04 65.34ZM246.46 56.15L283.23 92.92L274.04 102.11L237.27 65.34ZM310.81 46.96L320 56.15L283.23 92.92L274.04 83.73ZM246.46 74.54L283.23 111.31L274.04 120.5L237.27 83.73ZM310.81 65.34L320 74.54L283.23 111.31L274.04 102.11ZM246.46 92.92L283.23 129.69L274.04 138.88L237.27 102.11ZM310.81 83.73L320 92.92L283.23 129.69L274.04 120.5ZM246.46 111.31L283.23 148.08L274.04 157.27L237.27 120.5ZM310.81 102.11L320 111.31L283.23 148.08L274.04 138.88ZM246.46 129.69L283.23 166.46L274.04 175.65L237.27 138.88ZM310.81 120.5L320 129.69L283.23 166.46L274.04 157.27ZM246.46 148.08L283.23 184.85L274.04 194.04L237.27 157.27ZM310.81 138.88L320 148.08L283.23 184.85L274.04 175.65ZM246.46 166.46L283.23 203.23L274.04 212.42L237.27 175.65ZM310.81 157.27L320 166.46L283.23 203.23L274.04 194.04ZM310.81 175.65L320 184.85L283.23 221.62L274.04 212.42ZM246.46 203.23L283.23 240L274.04 249.19L237.27 212.42ZM310.81 194.04L320 203.23L283.23 240L274.04 230.81ZM246.46 221.62L283.23 258.38L274.04 267.58L237.27 230.81ZM310.81 212.42L320 221.62L283.23 258.38L274.04 249.19ZM246.46 240L283.23 276.77L274.04 285.96L237.27 249.19ZM310.81 230.81L320 240L283.23 276.77L274.04 267.58ZM246.46 258.38L283.23 295.15L274.04 304.35L237.27 267.58ZM310.81 249.19L320 258.38L283.23 295.15L274.04 285.96ZM246.46 276.77L283.23 313.54L274.04 322.73L237.27 285.96ZM310.81 267.58L320 276.77L283.23 313.54L274.04 304.35ZM246.46 295.15L283.23 331.92L274.04 341.12L237.27 304.35ZM310.81 285.96L320 295.15L283.23 331.92L274.04 322.73ZM246.46 313.54L283.23 350.31L274.04 359.5L237.27 322.73ZM310.81 304.35L320 313.54L283.23 350.31L274.04 341.12ZM246.46 331.92L283.23 368.69L274.04 377.89L237.27 341.12ZM310.81 322.73L320 331.92L283.23 368.69L274.04 359.5ZM246.46 350.31L283.23 387.08L274.04 396.27L237.27 359.5ZM310.81 341.12L320 350.31L283.23 387.08L274.04 377.89ZM246.46 368.69L283.23 405.46L274.04 414.66L237.27 377.89ZM310.81 359.5L320 368.69L283.23 405.46L274.04 396.27ZM246.46 387.08L283.23 423.85L274.04 433.04L237.27 396.27ZM310.81 377.89L320 387.08L283.23 423.85L274.04 414.66ZM246.46 405.46L283.23 442.23L274.04 451.42L237.27 414.66ZM310.81 396.27L320 405.46L283.23 442.23L274.04 433.04ZM246.46 423.85L283.23 460.62L274.04 469.81L237.27 433.04ZM310.81 414.66L320 423.85L283.23 460.62L274.04 451.42ZM246.46 442.23L283.23 479L274.04 488.19L237.27 451.42ZM310.81 433.04L320 442.23L283.23 479L274.04 469.81ZM246.46 460.62L283.23 497.39L274.04 506.58L237.27 469.81ZM310.81 451.42L320 460.62L283.23 497.39L274.04 488.19ZM310.81 469.81L320 479L283.23 515.77L274.04 506.58ZM320 -35.77L356.77 1L347.58 10.19L310.81 -26.58ZM320 -17.39L356.77 19.38L347.58 28.58L310.81 -8.19ZM384.35 -26.58L393.54 -17.39L356.77 19.38L347.58 10.19ZM320 1L356.77 37.77L347.58 46.96L310.81 10.19ZM384.35 -8.19L393.54 1L356.77 37.77L347.58 28.58ZM320 19.38L356.77 56.15L347.58 65.34L310.81 28.58ZM384.35 10.19L393.54 19.38L356.77 56.15L347.58 46.96ZM320 37.77L356.77 74.54L347.58 83.73L310.81 46.96ZM384.35 28.58L393.54 37.77L356.77 74.54L347.58 65.34ZM320 56.15L356.77 92.92L347.58 102.11L310.81 65.34ZM384.35 46.96L393.54 56.15L356.77 92.92L347.58 83.73ZM320 74.54L356.77 111.31L347.58 120.5L310.81 83.73ZM384.35 65.34L393.54 74.54L356.77 111.31L347.58 102.11ZM320 92.92L356.77 129.69L347.58 138.88L310.81 102.11ZM384.35 83.73L393.54 92.92L356.77 129.69L347.58 120.5ZM320 111.31L356.77 148.08L347.58 157.27L310.81 120.5ZM384.35 102.11L393.54 111.31L356.77 148.08L347.58 138.88ZM320 129.69L356.77 166.46L347.58 175.65L310.81 138.88ZM384.35 120.5L393.54 129.69L356.77 166.46L347.58 157.27ZM320 148.08L356.77 184.85L347.58 194.04L310.81 157.27ZM384.35 138.88L393.54 148.08L356.77 184.85L347.58 175.65ZM320 166.46L356.77 203.23L347.58 212.42L310.81 175.65ZM384.35 157.27L393.54 166.46L356.77 203.23L347.58 194.04ZM320 184.85L356.77 221.62L347.58 230.81L310.81 194.04ZM384.35 175.65L393.54 184.85L356.77 221.62L347.58 212.42ZM320 203.23L356.77 240L347.58 249.19L310.81 212.42ZM384.35 194.04L393.54 203.23L356.77 240L347.58 230.81ZM320 221.62L356.77 258.38L347.58 267.58L310.81 230.81ZM384.35 212.42L393.54 221.62L356.77 258.38L347.58 249.19ZM320 240L356.77 276.77L347.58 285.96L310.81 249.19ZM384.35 230.81L393.54 240L356.77 276.77L347.58 267.58ZM320 258.38L356.77 295.15L347.58 304.35L310.81 267.58ZM384.35 249.19L393.54 258.38L356.77 295.15L347.58 285.96ZM320 276.77L356.77 313.54L347.58 322.73L310.81 285.96ZM384.35 267.58L393.54 276.77L356.77 313.54L347.58 304.35ZM320 295.15L356.77 331.92L347.58 341.12L310.81 304.35ZM384.35 285.96L393.54 295.15L356.77 331.92L347.58 322.73ZM320 313.54L356.77 350.31L347.58 359.5L310.81 322.73ZM384.35 304.35L393.54 313.54L356.77 350.31L347.58 341.12ZM320 331.92L356.77 368.69L347.58 377.89L310.81 341.12ZM384.35 322.73L393.54 331.92L356.77 368.69L347.58 359.5ZM320 350.31L356.77 387.08L347.58 396.27L310.81 359.5ZM384.35 341.12L393.54 350.31L356.77 387.08L347.58 377.89ZM320 368.69L356.77 405.46L347.58 414.66L310.81 377.89ZM384.35 359.5L393.54 368.69L356.77 405.46L347.58 396.27ZM320 387.08L356.77 423.85L347.58 433.04L310.81 396.27ZM384.35 377.89L393.54 387.08L356.77 423.85L347.58 414.66ZM320 405.46L356.77 442.23L347.58 451.42L310.81 414.66ZM384.35 396.27L393.54 405.46L356.77 442.23L347.58 433.04ZM320 423.85L356.77 460.62L347.58 469.81L310.81 433.04ZM384.35 414.66L393.54 423.85L356.77 460.62L347.58 451.42ZM320 442.23L356.77 479L347.58 488.19L310.81 451.42ZM384.35 433.04L393.54 442.23L356.77 479L347.58 469.81ZM320 460.62L356.77 497.39L347.58 506.58L310.81 469.81ZM384.35 451.42L393.54 460.62L356.77 497.39L347.58 488.19ZM384.35 469.81L393.54 479L356.77 515.77L347.58 506.58ZM393.54 -35.77L430.31 1L421.12 10.19L384.35 -26.58ZM393.54 -17.39L430.31 19.38L421.12 28.58L384.35 -8.19ZM457.89 -26.58L467.08 -17.39L430.31 19.38L421.12 10.19ZM393.54 1L430.31 37.77L421.12 46.96L384.35 10.19ZM457.89 -8.19L467.08 1L430.31 37.77L421.12 28.58ZM393.54 19.38L430.31 56.15L421.12 65.34L384.35 28.58ZM457.89 10.19L467.08 19.38L430.31 56.15L421.12 46.96ZM393.54 37.77L430.31 74.54L421.12 83.73L384.35 46.96ZM457.89 28.58L467.08 37.77L430.31 74.54L421.12 65.34ZM393.54 56.15L430.31 92.92L421.12 102.11L384.35 65.34ZM457.89 46.96L467.08 56.15L430.31 92.92L421.12 83.73ZM393.54 74.54L430.31 111.31L421.12 120.5L384.35 83.73ZM457.89 65.34L467.08 74.54L430.31 111.31L421.12 102.11ZM393.54 92.92L430.31 129.69L421.12 138.88L384.35 102.11ZM457.89 83.73L467.08 92.92L430.31 129.69L421.12 120.5ZM393.54 111.31L430.31 148.08L421.12 157.27L384.35 120.5ZM457.89 102.11L467.08 111.31L430.31 148.08L421.12 138.88ZM393.54 129.69L430.31 166.46L421.12 175.65L384.35 138.88ZM457.89 120.5L467.08 129.69L430.31 166.46L421.12 157.27ZM393.54 148.08L430.31 184.85L421.12 194.04L384.35 157.27ZM457.89 138.88L467.08 148.08L430.31 184.85L421.12 175.65ZM393.54 166.46L430.31 203.23L421.12 212.42L384.35 175.65ZM457.89 157.27L467.08 166.46L430.31 203.23L421.12 194.04ZM393.54 184.85L430.31 221.62L421.12 230.81L384.35 194.04ZM457.89 175.65L467.08 184.85L430.31 221.62L421.12 212.42ZM393.54 203.23L430.31 240L421.12 249.19L384.35 212.42ZM457.89 194.04L467.08 203.23L430.31 240L421.12 230.81ZM393.54 221.62L430.31 258.38L421.12 267.58L384.35 230.81ZM457.89 212.42L467.08 221.62L430.31 258.38L421.12 249.19ZM393.54 240L430.31 276.77L421.12 285.96L384.35 249.19ZM457.89 230.81L467.08 240L430.31 276.77L421.12 267.58ZM393.54 258.38L430.31 295.15L421.12 304.35L384.35 267.58ZM457.89 249.19L467.08 258.38L430.31 295.15L421.12 285.96ZM393.54 276.77L430.31 313.54L421.12 322.73L384.35 285.96ZM457.89 267.58L467.08 276.77L430.31 313.54L421.12 304.35ZM393.54 295.15L430.31 331.92L421.12 341.12L384.35 304.35ZM457.89 285.96L467.08 295.15L430.31 331.92L421.12 322.73ZM393.54 313.54L430.31 350.31L421.12 359.5L384.35 322.73ZM457.89 304.35L467.08 313.54L430.31 350.31L421.12 341.12ZM393.54 331.92L430.31 368.69L421.12 377.89L384.35 341.12ZM457.89 322.73L467.08 331.92L430.31 368.69L421.12 359.5ZM393.54 350.31L430.31 387.08L421.12 396.27L384.35 359.5ZM457.89 341.12L467.08 350.31L430.31 387.08L421.12 377.89ZM393.54 368.69L430.31 405.46L421.12 414.66L384.35 377.89ZM457.89 359.5L467.08 368.69L430.31 405.46L421.12 396.27ZM393.54 387.08L430.31 423.85L421.12 433.04L384.35 396.27ZM457.89 377.89L467.08 387.08L430.31 423.85L421.12 414.66ZM393.54 405.46L430.31 442.23L421.12 451.42L384.35 414.66ZM457.89 396.27L467.08 405.46L430.31 442.23L421.12 433.04ZM393.54 423.85L430.31 460.62L421.12 469.81L384.35 433.04ZM457.89 414.66L467.08 423.85L430.31 460.62L421.12 451.42ZM393.54 442.23L430.31 479L421.12 488.19L384.35 451.42ZM457.89 433.04L467.08 442.23L430.31 479L421.12 469.81ZM393.54 460.62L430.31 497.39L421.12 506.58L384.35 469.81ZM457.89 451.42L467.08 460.62L430.31 497.39L421.12 488.19ZM457.89 469.81L467.08 479L430.31 515.77L421.12 506.58ZM467.08 -35.77L503.85 1L494.66 10.19L457.89 -26.58ZM467.08 -17.39L503.85 19.38L494.66 28.58L457.89 -8.19ZM531.42 -26.58L540.62 -17.39L503.85 19.38L494.66 10.19ZM467.08 1L503.85 37.77L494.66 46.96L457.89 10.19ZM531.42 -8.19L540.62 1L503.85 37.77L494.66 28.58ZM467.08 19.38L503.85 56.15L494.66 65.34L457.89 28.58ZM531.42 10.19L540.62 19.38L503.85 56.15L494.66 46.96ZM467.08 37.77L503.85 74.54L494.66 83.73L457.89 46.96ZM531.42 28.58L540.62 37.77L503.85 74.54L494.66 65.34ZM467.08 56.15L503.85 92.92L494.66 102.11L457.89 65.34ZM531.42 46.96L540.62 56.15L503.85 92.92L494.66 83.73ZM467.08 74.54L503.85 111.31L494.66 120.5L457.89 83.73ZM531.42 65.34L540.62 74.54L503.85 111.31L494.66 102.11ZM467.08 92.92L503.85 129.69L494.66 138.88L457.89 102.11ZM531.42 83.73L540.62 92.92L503.85 129.69L494.66 120.5ZM467.08 111.31L503.85 148.08L494.66 157.27L457.89 120.5ZM531.42 102.11L540.62 111.31L503.85 148.08L494.66 138.88ZM467.08 129.69L503.85 166.46L494.66 175.65L457.89 138.88ZM531.42 120.5L540.62 129.69L503.85 166.46L494.66 157.27ZM467.08 148.08L503.85 184.85L494.66 194.04L457.89 157.27ZM531.42 138.88L540.62 148.08L503.85 184.85L494.66 175.65ZM467.08 166.46L503.85 203.23L494.66 212.42L457.89 175.65ZM531.42 157.27L540.62 166.46L503.85 203.23L494.66 194.04ZM467.08 184.85L503.85 221.62L494.66 230.81L457.89 194.04ZM531.42 175.65L540.62 184.85L503.85 221.62L494.66 212.42ZM467.08 203.23L503.85 240L494.66 249.19L457.89 212.42ZM531.42 194.04L540.62 203.23L503.85 240L494.66 230.81ZM467.08 221.62L503.85 258.38L494.66 267.58L457.89 230.81ZM531.42 212.42L540.62 221.62L503.85 258.38L494.66 249.19ZM467.08 240L503.85 276.77L494.66 285.96L457.89 249.19ZM531.42 230.81L540.62 240L503.85 276.77L494.66 267.58ZM467.08 258.38L503.85 295.15L494.66 304.35L457.89 267.58ZM531.42 249.19L540.62 258.38L503.85 295.15L494.66 285.96ZM467.08 276.77L503.85 313.54L494.66 322.73L457.89 285.96ZM531.42 267.58L540.62 276.77L503.85 313.54L494.66 304.35ZM467.08 295.15L503.85 331.92L494.66 341.12L457.89 304.35ZM531.42 285.96L540.62 295.15L503.85 331.92L494.66 322.73ZM467.08 313.54L503.85 350.31L494.66 359.5L457.89 322.73ZM531.42 304.35L540.62 313.54L503.85 350.31L494.66 341.12ZM467.08 331.92L503.85 368.69L494.66 377.89L457.89 341.12ZM531.42 322.73L540.62 331.92L503.85 368.69L494.66 359.5ZM467.08 350.31L503.85 387.08L494.66 396.27L457.89 359.5ZM531.42 341.12L540.62 350.31L503.85 387.08L494.66 377.89ZM467.08 368.69L503.85 405.46L494.66 414.66L457.89 377.89ZM531.42 359.5L540.62 368.69L503.85 405.46L494.66 396.27ZM467.08 387.08L503.85 423.85L494.66 433.04L457.89 396.27ZM531.42 377.89L540.62 387.08L503.85 423.85L494.66 414.66ZM467.08 405.46L503.85 442.23L494.66 451.42L457.89 414.66ZM531.42 396.27L540.62 405.46L503.85 442.23L494.66 433.04ZM467.08 423.85L503.85 460.62L494.66 469.81L457.89 433.04ZM531.42 414.66L540.62 423.85L503.85 460.62L494.66 451.42ZM467.08 442.23L503.85 479L494.66 488.19L457.89 451.42ZM531.42 433.04L540.62 442.23L503.85 479L494.66 469.81ZM467.08 460.62L503.85 497.39L494.66 506.58L457.89 469.81ZM531.42 451.42L540.62 460.62L503.85 497.39L494.66 488.19ZM531.42 469.81L540.62 479L503.85 515.77L494.66 506.58ZM540.62 -35.77L577.39 1L568.19 10.19L531.42 -26.58ZM540.62 -17.39L577.39 19.38L568.19 28.58L531.42 -8.19ZM604.96 -26.58L614.16 -17.39L577.39 19.38L568.19 10.19ZM540.62 1L577.39 37.77L568.19 46.96L531.42 10.19ZM604.96 -8.19L614.16 1L577.39 37.77L568.19 28.58ZM540.62 19.38L577.39 56.15L568.19 65.34L531.42 28.58ZM604.96 10.19L614.16 19.38L577.39 56.15L568.19 46.96ZM540.62 37.77L577.39 74.54L568.19 83.73L531.42 46.96ZM604.96 28.58L614.16 37.77L577.39 74.54L568.19 65.34ZM540.62 56.15L577.39 92.92L568.19 102.11L531.42 65.34ZM604.96 46.96L614.16 56.15L577.39 92.92L568.19 83.73ZM540.62 74.54L577.39 111.31L568.19 120.5L531.42 83.73ZM604.96 65.34L614.16 74.54L577.39 111.31L568.19 102.11ZM540.62 92.92L577.39 129.69L568.19 138.88L531.42 102.11ZM604.96 83.73L614.16 92.92L577.39 129.69L568.19 120.5ZM540.62 111.31L577.39 148.08L568.19 157.27L531.42 120.5ZM604.96 102.11L614.16 111.31L577.39 148.08L568.19 138.88ZM540.62 129.69L577.39 166.46L568.19 175.65L531.42 138.88ZM604.96 120.5L614.16 129.69L577.39 166.46L568.19 157.27ZM540.62 148.08L577.39 184.85L568.19 194.04L531.42 157.27ZM604.96 138.88L614.16 148.08L577.39 184.85L568.19 175.65ZM540.62 166.46L577.39 203.23L568.19 212.42L531.42 175.65ZM604.96 157.27L614.16 166.46L577.39 203.23L568.19 194.04ZM540.62 184.85L577.39 221.62L568.19 230.81L531.42 194.04ZM604.96 175.65L614.16 184.85L577.39 221.62L568.19 212.42ZM540.62 203.23L577.39 240L568.19 249.19L531.42 212.42ZM604.96 194.04L614.16 203.23L577.39 240L568.19 230.81ZM540.62 221.62L577.39 258.38L568.19 267.58L531.42 230.81ZM604.96 212.42L614.16 221.62L577.39 258.38L568.19 249.19ZM540.62 240L577.39 276.77L568.19 285.96L531.42 249.19ZM604.96 230.81L614.16 240L577.39 276.77L568.19 267.58ZM540.62 258.38L577.39 295.15L568.19 304.35L531.42 267.58ZM604.96 249.19L614.16 258.38L577.39 295.15L568.19 285.96ZM540.62 276.77L577.39 313.54L568.19 322.73L531.42 285.96ZM604.96 267.58L614.16 276.77L577.39 313.54L568.19 304.35ZM540.62 295.15L577.39 331.92L568.19 341.12L531.42 304.35ZM604.96 285.96L614.16 295.15L577.39 331.92L568.19 322.73ZM540.62 313.54L577.39 350.31L568.19 359.5L531.42 322.73ZM604.96 304.35L614.16 313.54L577.39 350.31L568.19 341.12ZM540.62 331.92L577.39 368.69L568.19 377.89L531.42 341.12ZM604.96 322.73L614.16 331.92L577.39 368.69L568.19 359.5ZM540.62 350.31L577.39 387.08L568.19 396.27L531.42 359.5ZM604.96 341.12L614.16 350.31L577.39 387.08L568.19 377.89ZM540.62 368.69L577.39 405.46L568.19 414.66L531.42 377.89ZM604.96 359.5L614.16 368.69L577.39 405.46L568.19 396.27ZM540.62 387.08L577.39 423.85L568.19 433.04L531.42 396.27ZM604.96 377.89L614.16 387.08L577.39 423.85L568.19 414.66ZM540.62 405.46L577.39 442.23L568.19 451.42L531.42 414.66ZM604.96 396.27L614.16 405.46L577.39 442.23L568.19 433.04ZM540.62 423.85L577.39 460.62L568.19 469.81L531.42 433.04ZM604.96 414.66L614.16 423.85L577.39 460.62L568.19 451.42ZM540.62 442.23L577.39 479L568.19 488.19L531.42 451.42ZM604.96 433.04L614.16 442.23L577.39 479L568.19 469.81ZM540.62 460.62L577.39 497.39L568.19 506.58L531.42 469.81ZM604.96 451.42L614.16 460.62L577.39 497.39L568.19 488.19ZM604.96 469.81L614.16 479L577.39 515.77L568.19 506.58ZM614.16 -35.77L650.93 1L641.73 10.19L604.96 -26.58ZM614.16 -17.39L650.93 19.38L641.73 28.58L604.96 -8.19ZM614.16 1L650.93 37.77L641.73 46.96L604.96 10.19ZM614.16 19.38L650.93 56.15L641.73 65.34L604.96 28.58ZM614.16 37.77L650.93 74.54L641.73 83.73L604.96 46.96ZM614.16 56.15L650.93 92.92L641.73 102.11L604.96 65.34ZM614.16 74.54L650.93 111.31L641.73 120.5L604.96 83.73ZM614.16 92.92L650.93 129.69L641.73 138.88L604.96 102.11ZM614.16 111.31L650.93 148.08L641.73 157.27L604.96 120.5ZM614.16 129.69L650.93 166.46L641.73 175.65L604.96 138.88ZM614.16 148.08L650.93 184.85L641.73 194.04L604.96 157.27ZM614.16 166.46L650.93 203.23L641.73 212.42L604.96 175.65ZM614.16 184.85L650.93 221.62L641.73 230.81L604.96 194.04ZM614.16 203.23L650.93 240L641.73 249.19L604.96 212.42ZM614.16 221.62L650.93 258.38L641.73 267.58L604.96 230.81ZM614.16 240L650.93 276.77L641.73 285.96L604.96 249.19ZM614.16 258.38L650.93 295.15L641.73 304.35L604.96 267.58ZM614.16 276.77L650.93 313.54L641.73 322.73L604.96 285.96ZM614.16 295.15L650.93 331.92L641.73 341.12L604.96 304.35ZM614.16 313.54L650.93 350.31L641.73 359.5L604.96 322.73ZM614.16 331.92L650.93 368.69L641.73 377.89L604.96 341.12ZM614.16 350.31L650.93 387.08L641.73 396.27L604.96 359.5ZM614.16 368.69L650.93 405.46L641.73 414.66L604.96 377.89ZM614.16 387.08L650.93 423.85L641.73 433.04L604.96 396.27ZM614.16 405.46L650.93 442.23L641.73 451.42L604.96 414.66ZM614.16 423.85L650.93 460.62L641.73 469.81L604.96 433.04ZM614.16 442.23L650.93 479L641.73 488.19L604.96 451.42ZM614.16 460.62L650.93 497.39L641.73 506.58L604.96 469.81Z"/></g><path class="dm" style="fill:var(--cs-acc);fill-opacity:.18" d="M246.46 184.85L283.23 221.62L274.04 230.81L237.27 194.04Z"/>
</svg>
